<svg xmlns="http://www.w3.org/2000/svg" xmlns:xlink="http://www.w3.org/1999/xlink" viewBox="0 0 286.72 94.57"><defs><style>.cls-1,.cls-6{fill:#03b7e0;}.cls-10,.cls-11,.cls-2,.cls-9{fill:#fff;}.cls-3{fill:url(#linear-gradient);}.cls-4{fill:url(#linear-gradient-2);}.cls-5{fill:url(#linear-gradient-3);}.cls-6{font-size:50px;font-family:Nunito-ExtraBold, Nunito;font-weight:800;}.cls-7{letter-spacing:0em;}.cls-10,.cls-8{letter-spacing:0em;}.cls-9{letter-spacing:-0.03em;}.cls-11{font-size:13px;font-family:Nunito-Bold, Nunito;font-weight:700;letter-spacing:0.7em;}.cls-12{letter-spacing:0.69em;}.cls-13{letter-spacing:0.66em;}.cls-14{letter-spacing:0.7em;}</style><linearGradient id="linear-gradient" x1="19.67" y1="27.99" x2="19.67" y2="37.37" gradientUnits="userSpaceOnUse"><stop offset="0" stop-color="#fff"/><stop offset="1" stop-color="#838899"/></linearGradient><linearGradient id="linear-gradient-2" x1="-887.88" y1="73.26" x2="-887.88" y2="82.65" gradientTransform="translate(907.55 -6.73)" xlink:href="#linear-gradient"/><linearGradient id="linear-gradient-3" x1="-836.56" y1="88.39" x2="-828.74" y2="88.39" gradientTransform="translate(-782.45 165.76) rotate(180)" gradientUnits="userSpaceOnUse"><stop offset="0" stop-color="#00bbf2"/><stop offset="1" stop-color="#146087"/></linearGradient></defs><title>Asset 4</title><g id="Layer_2" data-name="Layer 2"><g id="Layer_1-2" data-name="Layer 1"><path class="cls-1" d="M56.62,82.58H41.09a5.21,5.21,0,0,1,0-10.41H56.62a39,39,0,0,0,39-39,5.21,5.21,0,0,1,10.41,0A49.43,49.43,0,0,1,56.62,82.58Z"/><path class="cls-2" d="M41.09,94.57H19.67a5.2,5.2,0,0,1-5.2-5.2V61.2a5.2,5.2,0,1,1,10.4,0v23h11v-23a5.21,5.21,0,1,1,10.41,0V89.37A5.2,5.2,0,0,1,41.09,94.57Z"/><path class="cls-2" d="M55.94,0H19.67a5.2,5.2,0,0,0-5.2,5.2V23.81a5.2,5.2,0,0,0,5.2,5.2h5.2V10.41H55.94a22.79,22.79,0,1,1,0,45.58H10.41V47.8H53.26a14.6,14.6,0,1,0,0-29.2h-18V29h18a4.19,4.19,0,1,1,0,8.38H5.2A5.2,5.2,0,0,0,0,42.59V61.2a5.2,5.2,0,0,0,5.2,5.2H55.94a33.2,33.2,0,0,0,0-66.4Z"/><circle class="cls-1" cx="100.37" cy="18.68" r="5.63"/><rect class="cls-2" x="14.47" y="5.2" width="10.41" height="32.19"/><rect class="cls-3" x="14.47" y="28.01" width="10.41" height="9.38"/><rect class="cls-4" x="14.47" y="66.56" width="10.41" height="9.38" transform="translate(39.34 142.49) rotate(180)"/><rect class="cls-5" x="46.29" y="72.17" width="7.82" height="10.41"/><text class="cls-6" transform="translate(113.22 57.8)">P<tspan class="cls-7" x="33.2" y="0">R</tspan><tspan class="cls-8" x="67.75" y="0">O</tspan><tspan class="cls-9" x="107.55" y="0">P</tspan><tspan class="cls-10" x="139.25" y="0">X</tspan></text><text class="cls-11" transform="translate(117.22 75.8)">IN<tspan class="cls-12" x="31.59" y="0">F</tspan><tspan class="cls-13" x="47.83" y="0">O</tspan><tspan x="66.57" y="0">T</tspan><tspan class="cls-14" x="83.75" y="0">E</tspan><tspan x="100.59" y="0">CH</tspan></text></g></g></svg>